<svg width="330" height="40" viewBox="0 0 330 40" fill="none" xmlns="http://www.w3.org/2000/svg">
<g clip-path="url(#clip0_1070_9)">
<path d="M35.95 20V16.18L46.74 5.39L41.35 0L25.17 16.18V20V23.82L41.35 40L46.74 34.61L35.95 23.82V20Z" fill="#16F2D2"/>
<path d="M5.39 0L0 5.39L10.79 16.18V20V23.82L0 34.61L5.39 40L21.57 23.82V20V16.18L5.39 0Z" fill="#1351FC"/>
<path d="M60.7286 9.46828H64.1193V18.1043H74.61V9.46828H78.0007V30.16H74.61V21.0023H64.1193V30.16H60.7286V9.46828ZM82.0674 9.46828H90.6455C95.63 9.46828 98.1513 11.5838 98.1513 15.8149C98.1513 20.075 95.63 22.2195 90.5875 22.2195H85.458V30.16H82.0674V9.46828ZM85.458 12.3663V19.3215H90.3847C91.8916 19.3215 92.9929 19.0317 93.6884 18.51C94.3839 17.9594 94.7317 17.061 94.7317 15.8149C94.7317 14.5688 94.3549 13.6994 93.6594 13.1777C92.9639 12.6271 91.8626 12.3663 90.3847 12.3663H85.458ZM107.839 14.7716C108.563 14.7716 109.201 14.8875 109.722 15.1484V18.4521C108.969 18.2202 108.273 18.1333 107.578 18.1333C106.708 18.1333 105.926 18.4521 105.23 19.1476C104.419 19.9301 104.042 20.9444 104.042 22.2195V30.16H100.767V15.1773H104.042V17.3219C104.448 16.5684 104.912 15.9888 105.462 15.5831C106.129 15.0324 106.911 14.7716 107.839 14.7716ZM118.562 14.7716C120.822 14.7716 122.648 15.4961 124.039 17.0031C125.401 18.4811 126.097 20.3648 126.097 22.6832C126.097 24.9726 125.401 26.8563 124.068 28.3053C122.677 29.8122 120.822 30.5657 118.562 30.5657C116.272 30.5657 114.447 29.8122 113.056 28.3053C111.694 26.8563 111.027 24.9726 111.027 22.6832C111.027 20.3648 111.694 18.4811 113.085 17.0031C114.447 15.4961 116.272 14.7716 118.562 14.7716ZM118.562 17.4668C117.171 17.4668 116.127 17.9884 115.374 19.0896C114.736 20.017 114.418 21.2342 114.418 22.6832C114.418 24.1322 114.736 25.3203 115.374 26.2477C116.127 27.32 117.171 27.8706 118.562 27.8706C119.924 27.8706 120.996 27.32 121.75 26.2477C122.387 25.2914 122.735 24.1032 122.735 22.6832C122.735 21.2342 122.387 20.017 121.75 19.0896C120.996 17.9884 119.924 17.4668 118.562 17.4668ZM144.807 9.46828H148.661L156.572 30.16H152.95L151.066 24.9726H142.401L140.518 30.16H136.895L144.807 9.46828ZM143.416 22.1905H150.052L146.806 13.1198H146.69L143.416 22.1905ZM158.593 9.46828H161.983V30.16H158.593V9.46828ZM175.686 9.46828H179.077L189.307 24.393H189.423V9.46828H192.843V30.16H189.539L179.193 15.0324H179.077V30.16H175.686V9.46828ZM195.028 9.46828H198.709L204.389 26.3346H204.476L210.156 9.46828H213.836L206.475 30.16H202.389L195.028 9.46828ZM216.015 9.46828H225.231C227.346 9.46828 229.027 9.93196 230.244 10.8883C231.519 11.9316 232.186 13.4385 232.186 15.4092C232.186 16.4814 231.896 17.4378 231.316 18.2782C230.679 19.2056 229.78 19.8141 228.679 20.1039V20.1619C230.476 20.5676 231.49 21.7558 231.722 23.7844L232.07 27.1171C232.186 28.3922 232.621 29.4065 233.316 30.16H229.636C229.143 29.5224 228.853 28.6241 228.737 27.4649L228.476 24.9146C228.36 23.7844 228.013 22.973 227.433 22.4803C226.825 21.9587 225.926 21.7268 224.767 21.7268H219.406V30.16H216.015V9.46828ZM219.406 12.3663V18.8288H224.767C226.1 18.8288 227.114 18.539 227.81 17.9884C228.447 17.4088 228.766 16.5974 228.766 15.5541C228.766 14.4239 228.447 13.6124 227.81 13.1198C227.172 12.5981 226.158 12.3663 224.767 12.3663H219.406Z" fill="white"/>
</g>
<defs>
<clipPath id="clip0_1070_9">
<rect width="330" height="40" fill="white"/>
</clipPath>
</defs>
</svg>
