<svg xmlns="http://www.w3.org/2000/svg" viewBox="0 0 330 40"><defs><style>.cls-1{fill:#323333;opacity:0;}.cls-2{fill:#fff;}.cls-3{fill:#16f2d2;}.cls-4{fill:#1351fc;}</style></defs><title>HPro AI NVR-黑主题</title><g id="图层_1" data-name="图层 1"><rect class="cls-1" width="330" height="40"/></g><g id="图层_4" data-name="图层 4"><path class="cls-2" d="M64.13,9.46v8.63H74.61V9.46H78V30.14H74.61V21H64.13v9.15H60.74V9.46Z"/><path class="cls-2" d="M90.63,9.46c5,0,7.5,2.11,7.5,6.34s-2.52,6.4-7.56,6.4H85.44v7.94H82.05V9.46Zm-5.19,9.85h4.93a5.48,5.48,0,0,0,3.3-.82,3.23,3.23,0,0,0,1-2.69,3.09,3.09,0,0,0-1.07-2.63,5.3,5.3,0,0,0-3.27-.82H85.44Z"/><path class="cls-2" d="M109.68,15.13v3.31a7.17,7.17,0,0,0-2.14-.32,3.24,3.24,0,0,0-2.35,1A4,4,0,0,0,104,22.2v7.94h-3.27v-15H104v2.15a5,5,0,0,1,1.42-1.74,3.6,3.6,0,0,1,2.38-.81A4.21,4.21,0,0,1,109.68,15.13Z"/><path class="cls-2" d="M124,17A8,8,0,0,1,126,22.67a8,8,0,0,1-2,5.61,7.82,7.82,0,0,1-11,0,7.88,7.88,0,0,1-2-5.61A7.93,7.93,0,0,1,113,17a7,7,0,0,1,5.47-2.23A7.05,7.05,0,0,1,124,17Zm-8.66,2.08a6.34,6.34,0,0,0-.95,3.6,6.23,6.23,0,0,0,.95,3.56,4,4,0,0,0,6.38,0,6.37,6.37,0,0,0,1-3.56,6.35,6.35,0,0,0-1-3.6,4,4,0,0,0-6.38,0Z"/><path class="cls-2" d="M148.6,9.46l7.9,20.68h-3.62L151,25h-8.66l-1.88,5.19h-3.62l7.9-20.68ZM150,22.17l-3.25-9.06h-.11l-3.28,9.06Z"/><path class="cls-2" d="M161.92,9.46V30.14h-3.39V9.46Z"/><path class="cls-2" d="M179,9.46l10.22,14.91h.12V9.46h3.42V30.14h-3.31L179.11,15H179V30.14h-3.39V9.46Z"/><path class="cls-2" d="M198.6,9.46l5.68,16.85h.09L210,9.46h3.68l-7.36,20.68h-4.08L194.92,9.46Z"/><path class="cls-2" d="M225.1,9.46a7.91,7.91,0,0,1,5,1.42,5.53,5.53,0,0,1,1.94,4.52,4.91,4.91,0,0,1-.87,2.86,4.49,4.49,0,0,1-2.63,1.83v.06a3.75,3.75,0,0,1,3,3.62l.34,3.33a5.05,5.05,0,0,0,1.25,3H229.5a5.29,5.29,0,0,1-.9-2.7l-.26-2.55a3.51,3.51,0,0,0-1-2.43,4,4,0,0,0-2.66-.75h-5.36v8.43h-3.39V9.46Zm-5.82,9.35h5.36a4.83,4.83,0,0,0,3-.84,3.14,3.14,0,0,0,.95-2.43,2.89,2.89,0,0,0-.95-2.43,4.8,4.8,0,0,0-3-.76h-5.36Z"/><polygon class="cls-3" points="35.95 20 35.95 16.18 46.74 5.39 41.35 0 25.17 16.18 25.17 20 25.17 23.82 41.35 40 46.74 34.61 35.95 23.82 35.95 20"/><polygon class="cls-4" points="5.39 0 0 5.39 10.79 16.18 10.79 20 10.79 23.82 0 34.61 5.39 40 21.57 23.82 21.57 20 21.57 16.18 5.39 0"/></g></svg>